{
  "accessors": [
    {
      "bufferView": 2,
      "componentType": 5126,
      "count": 65532,
      "max": [
        0.28228759765625,
        0.5,
        0.251708984375
      ],
      "min": [
        -0.1390838623046875,
        0.0030744075775146484,
        -0.2095947265625
      ],
      "type": "VEC3"
    },
    {
      "bufferView": 2,
      "byteOffset": 786384,
      "componentType": 5126,
      "count": 65532,
      "max": [
        0.999810516834259,
        0.9999507069587708,
        0.9999713897705078
      ],
      "min": [
        -0.9999017119407654,
        -0.9999995827674866,
        -0.9999021291732788
      ],
      "type": "VEC3"
    },
    {
      "bufferView": 1,
      "componentType": 5126,
      "count": 65532,
      "max": [
        0.957763671875,
        0.94384765625
      ],
      "min": [
        0.0,
        0.024658203125
      ],
      "type": "VEC2"
    },
    {
      "bufferView": 0,
      "componentType": 5125,
      "count": 354945,
      "type": "SCALAR"
    },
    {
      "bufferView": 2,
      "byteOffset": 1572768,
      "componentType": 5126,
      "count": 65532,
      "max": [
        0.27392578125,
        0.4989013671875,
        0.253143310546875
      ],
      "min": [
        -0.1950225830078125,
        -0.185760498046875,
        -0.2028656005859375
      ],
      "type": "VEC3"
    },
    {
      "bufferView": 2,
      "byteOffset": 2359152,
      "componentType": 5126,
      "count": 65532,
      "max": [
        0.9999939799308777,
        0.99997878074646,
        0.9999993443489075
      ],
      "min": [
        -0.9999724626541138,
        -0.9999995827674866,
        -0.9999592304229736
      ],
      "type": "VEC3"
    },
    {
      "bufferView": 1,
      "byteOffset": 524256,
      "componentType": 5126,
      "count": 65532,
      "max": [
        0.9990234375,
        1.0
      ],
      "min": [
        0.000244140625,
        0.0
      ],
      "type": "VEC2"
    },
    {
      "bufferView": 0,
      "byteOffset": 1419780,
      "componentType": 5125,
      "count": 343599,
      "type": "SCALAR"
    },
    {
      "bufferView": 2,
      "byteOffset": 3145536,
      "componentType": 5126,
      "count": 65532,
      "max": [
        0.235595703125,
        0.498748779296875,
        0.253082275390625
      ],
      "min": [
        -0.2403106689453125,
        -0.5,
        -0.20843505859375
      ],
      "type": "VEC3"
    },
    {
      "bufferView": 2,
      "byteOffset": 3931920,
      "componentType": 5126,
      "count": 65532,
      "max": [
        0.999945878982544,
        0.9999940395355225,
        0.999923050403595
      ],
      "min": [
        -0.9999942183494568,
        -0.9999489784240723,
        -0.9999957084655762
      ],
      "type": "VEC3"
    },
    {
      "bufferView": 1,
      "byteOffset": 1048512,
      "componentType": 5126,
      "count": 65532,
      "max": [
        0.98828125,
        0.97998046875
      ],
      "min": [
        0.032958984375,
        0.0048828125
      ],
      "type": "VEC2"
    },
    {
      "bufferView": 0,
      "byteOffset": 2794176,
      "componentType": 5125,
      "count": 346722,
      "type": "SCALAR"
    },
    {
      "bufferView": 2,
      "byteOffset": 4718304,
      "componentType": 5126,
      "count": 65532,
      "max": [
        0.28448486328125,
        -0.0003399848937988281,
        0.173309326171875
      ],
      "min": [
        -0.1449737548828125,
        -0.494720458984375,
        -0.312591552734375
      ],
      "type": "VEC3"
    },
    {
      "bufferView": 2,
      "byteOffset": 5504688,
      "componentType": 5126,
      "count": 65532,
      "max": [
        0.9999939799308777,
        0.9999995231628418,
        0.9999796748161316
      ],
      "min": [
        -0.9998595714569092,
        -0.9999887943267822,
        -0.9999542832374573
      ],
      "type": "VEC3"
    },
    {
      "bufferView": 1,
      "byteOffset": 1572768,
      "componentType": 5126,
      "count": 65532,
      "max": [
        0.9892578125,
        0.996826171875
      ],
      "min": [
        0.001953125,
        0.002197265625
      ],
      "type": "VEC2"
    },
    {
      "bufferView": 0,
      "byteOffset": 4181064,
      "componentType": 5125,
      "count": 359319,
      "type": "SCALAR"
    },
    {
      "bufferView": 2,
      "byteOffset": 6291072,
      "componentType": 5126,
      "count": 65532,
      "max": [
        0.199310302734375,
        0.013194084167480469,
        0.1894683837890625
      ],
      "min": [
        -0.28436279296875,
        -0.496673583984375,
        -0.31396484375
      ],
      "type": "VEC3"
    },
    {
      "bufferView": 2,
      "byteOffset": 7077456,
      "componentType": 5126,
      "count": 65532,
      "max": [
        0.9999914169311523,
        0.9999549388885498,
        0.9999564290046692
      ],
      "min": [
        -0.9999972581863403,
        -0.9999731183052063,
        -0.9999969601631165
      ],
      "type": "VEC3"
    },
    {
      "bufferView": 1,
      "byteOffset": 2097024,
      "componentType": 5126,
      "count": 65532,
      "max": [
        0.98583984375,
        0.996826171875
      ],
      "min": [
        0.009033203125,
        0.005615234375
      ],
      "type": "VEC2"
    },
    {
      "bufferView": 0,
      "byteOffset": 5618340,
      "componentType": 5125,
      "count": 354777,
      "type": "SCALAR"
    },
    {
      "bufferView": 2,
      "byteOffset": 7863840,
      "componentType": 5126,
      "count": 65532,
      "max": [
        0.255828857421875,
        0.013798713684082031,
        0.316314697265625
      ],
      "min": [
        -0.27587890625,
        -0.49957275390625,
        -0.316314697265625
      ],
      "type": "VEC3"
    },
    {
      "bufferView": 2,
      "byteOffset": 8650224,
      "componentType": 5126,
      "count": 65532,
      "max": [
        0.9999445676803589,
        0.9999769926071167,
        0.9999917149543762
      ],
      "min": [
        -0.9999762773513794,
        -0.9999822974205017,
        -0.9999957084655762
      ],
      "type": "VEC3"
    },
    {
      "bufferView": 1,
      "byteOffset": 2621280,
      "componentType": 5126,
      "count": 65532,
      "max": [
        0.978271484375,
        0.999755859375
      ],
      "min": [
        0.0,
        0.002197265625
      ],
      "type": "VEC2"
    },
    {
      "bufferView": 0,
      "byteOffset": 7037448,
      "componentType": 5125,
      "count": 355605,
      "type": "SCALAR"
    },
    {
      "bufferView": 2,
      "byteOffset": 9436608,
      "componentType": 5126,
      "count": 54027,
      "max": [
        0.25579833984375,
        0.42138671875,
        0.28350830078125
      ],
      "min": [
        -0.28448486328125,
        -0.49871826171875,
        -0.1983489990234375
      ],
      "type": "VEC3"
    },
    {
      "bufferView": 2,
      "byteOffset": 10084932,
      "componentType": 5126,
      "count": 54027,
      "max": [
        0.9999771118164063,
        0.9999678730964661,
        0.9999843835830688
      ],
      "min": [
        -0.9999728798866272,
        -0.999697744846344,
        -0.9999866485595703
      ],
      "type": "VEC3"
    },
    {
      "bufferView": 1,
      "byteOffset": 3145536,
      "componentType": 5126,
      "count": 54027,
      "max": [
        0.99755859375,
        0.99169921875
      ],
      "min": [
        0.000244140625,
        0.00146484375
      ],
      "type": "VEC2"
    },
    {
      "bufferView": 0,
      "byteOffset": 8459868,
      "componentType": 5125,
      "count": 282507,
      "type": "SCALAR"
    }
  ],
  "asset": {
    "extras": {
      "author": "GR-video (https://sketchfab.com/grvideotv)",
      "license": "CC-BY-4.0 (http://creativecommons.org/licenses/by/4.0/)",
      "source": "https://sketchfab.com/3d-models/3d-model-bust-33ec96ea65df4ab896486904a9dfba99",
      "title": "3d model bust"
    },
    "generator": "Sketchfab-16.74.0",
    "version": "2.0"
  },
  "bufferViews": [
    {
      "buffer": 0,
      "byteLength": 9589896,
      "name": "floatBufferViews",
      "target": 34963
    },
    {
      "buffer": 0,
      "byteLength": 3577752,
      "byteOffset": 9589896,
      "byteStride": 8,
      "name": "floatBufferViews",
      "target": 34962
    },
    {
      "buffer": 0,
      "byteLength": 10733256,
      "byteOffset": 13167648,
      "byteStride": 12,
      "name": "floatBufferViews",
      "target": 34962
    }
  ],
  "buffers": [
    {
      "byteLength": 23900904,
      "uri": "scene.bin"
    }
  ],
  "extensionsUsed": [
    "KHR_materials_clearcoat",
    "KHR_materials_specular"
  ],
  "materials": [
    {
      "extensions": {
        "KHR_materials_clearcoat": {
          "clearcoatFactor": 1.0,
          "clearcoatRoughnessFactor": 0.24228645268252244
        },
        "KHR_materials_specular": {
          "specularColorFactor": [
            1.0,
            1.0,
            1.0
          ],
          "specularFactor": 0.047238239202252806
        }
      },
      "name": "tripo_mat_620fd1d4-8a84-4be9-8a59-b3f72ea658f9",
      "pbrMetallicRoughness": {
        "baseColorFactor": [
          0.4,
          0.4,
          0.4,
          1.0
        ],
        "metallicFactor": 0.0,
        "roughnessFactor": 0.43123940949153367
      }
    }
  ],
  "meshes": [
    {
      "name": "Object_0",
      "primitives": [
        {
          "attributes": {
            "NORMAL": 1,
            "POSITION": 0,
            "TEXCOORD_0": 2
          },
          "indices": 3,
          "material": 0,
          "mode": 4
        }
      ]
    },
    {
      "name": "Object_1",
      "primitives": [
        {
          "attributes": {
            "NORMAL": 5,
            "POSITION": 4,
            "TEXCOORD_0": 6
          },
          "indices": 7,
          "material": 0,
          "mode": 4
        }
      ]
    },
    {
      "name": "Object_2",
      "primitives": [
        {
          "attributes": {
            "NORMAL": 9,
            "POSITION": 8,
            "TEXCOORD_0": 10
          },
          "indices": 11,
          "material": 0,
          "mode": 4
        }
      ]
    },
    {
      "name": "Object_3",
      "primitives": [
        {
          "attributes": {
            "NORMAL": 13,
            "POSITION": 12,
            "TEXCOORD_0": 14
          },
          "indices": 15,
          "material": 0,
          "mode": 4
        }
      ]
    },
    {
      "name": "Object_4",
      "primitives": [
        {
          "attributes": {
            "NORMAL": 17,
            "POSITION": 16,
            "TEXCOORD_0": 18
          },
          "indices": 19,
          "material": 0,
          "mode": 4
        }
      ]
    },
    {
      "name": "Object_5",
      "primitives": [
        {
          "attributes": {
            "NORMAL": 21,
            "POSITION": 20,
            "TEXCOORD_0": 22
          },
          "indices": 23,
          "material": 0,
          "mode": 4
        }
      ]
    },
    {
      "name": "Object_6",
      "primitives": [
        {
          "attributes": {
            "NORMAL": 25,
            "POSITION": 24,
            "TEXCOORD_0": 26
          },
          "indices": 27,
          "material": 0,
          "mode": 4
        }
      ]
    }
  ],
  "nodes": [
    {
      "children": [
        1
      ],
      "matrix": [
        1.0,
        0.0,
        0.0,
        0.0,
        0.0,
        2.220446049250313e-16,
        -1.0,
        0.0,
        0.0,
        1.0,
        2.220446049250313e-16,
        0.0,
        0.0,
        0.0,
        0.0,
        1.0
      ],
      "name": "Sketchfab_model"
    },
    {
      "children": [
        2
      ],
      "name": "root"
    },
    {
      "children": [
        3
      ],
      "matrix": [
        1.0,
        0.0,
        0.0,
        0.0,
        0.0,
        2.220446049250313e-16,
        1.0,
        0.0,
        0.0,
        -1.0,
        2.220446049250313e-16,
        0.0,
        0.0,
        0.0,
        0.0,
        1.0
      ],
      "name": "GLTF_SceneRootNode"
    },
    {
      "children": [
        4,
        5,
        6,
        7,
        8,
        9,
        10
      ],
      "name": "tripo_node_620fd1d4-8a84-4be9-8a59-b3f72ea658f9_0"
    },
    {
      "mesh": 0,
      "name": "Object_4"
    },
    {
      "mesh": 1,
      "name": "Object_5"
    },
    {
      "mesh": 2,
      "name": "Object_6"
    },
    {
      "mesh": 3,
      "name": "Object_7"
    },
    {
      "mesh": 4,
      "name": "Object_8"
    },
    {
      "mesh": 5,
      "name": "Object_9"
    },
    {
      "mesh": 6,
      "name": "Object_10"
    }
  ],
  "scene": 0,
  "scenes": [
    {
      "name": "Sketchfab_Scene",
      "nodes": [
        0
      ]
    }
  ]
}
